<svg width="23" height="22" viewBox="0 0 23 22" fill="none" xmlns="http://www.w3.org/2000/svg">
<path d="M15.6951 14.1325L15.1263 14.6988C15.1263 14.6988 13.7726 16.0438 10.0788 12.3713C6.38509 8.69876 7.73884 7.35376 7.73884 7.35376L8.09634 6.99626C8.9801 6.11876 9.06384 4.70876 8.29259 3.67876L6.71759 1.575C5.76259 0.300005 3.91884 0.131255 2.82509 1.21876L0.862594 3.16876C0.321344 3.70876 -0.0411566 4.40626 0.00259344 5.18126C0.115093 7.16501 1.01259 11.4313 6.01759 16.4088C11.3263 21.6863 16.3076 21.8963 18.3438 21.7063C18.9888 21.6463 19.5488 21.3188 20.0001 20.8688L21.7751 19.1038C22.9751 17.9125 22.6376 15.8688 21.1026 15.035L18.7151 13.7363C17.7076 13.19 16.4826 13.35 15.6951 14.1325Z" fill="white"/>
</svg>
