<svg width="26" height="26" viewBox="0 0 26 26" fill="none" xmlns="http://www.w3.org/2000/svg">
<path d="M24.8958 11.5208L14.4791 1.10415C14.281 0.914486 14.0474 0.765809 13.7916 0.666654C13.2844 0.458283 12.7155 0.458283 12.2083 0.666654C11.9526 0.765809 11.7189 0.914486 11.5208 1.10415L1.10415 11.5208C0.909899 11.7151 0.755815 11.9457 0.650689 12.1995C0.545563 12.4533 0.491455 12.7253 0.491455 13C0.491455 13.5548 0.711847 14.0869 1.10415 14.4792C1.49645 14.8715 2.02852 15.0918 2.58331 15.0918C3.13811 15.0918 3.67018 14.8715 4.06248 14.4792L10.9166 7.60415L10.9166 23.4167C10.9166 23.9692 11.1361 24.4991 11.5268 24.8898C11.9175 25.2805 12.4474 25.5 13 25.5C13.5525 25.5 14.0824 25.2805 14.4731 24.8898C14.8638 24.4991 15.0833 23.9692 15.0833 23.4167L15.0833 7.60415L21.9375 14.4792C22.1312 14.6744 22.3616 14.8294 22.6154 14.9352C22.8693 15.0409 23.1416 15.0954 23.4166 15.0954C23.6917 15.0954 23.964 15.0409 24.2178 14.9352C24.4717 14.8294 24.7021 14.6744 24.8958 14.4792C25.0911 14.2855 25.2461 14.0551 25.3518 13.8012C25.4576 13.5473 25.5121 13.275 25.5121 13C25.5121 12.725 25.4576 12.4527 25.3518 12.1988C25.2461 11.9449 25.0911 11.7145 24.8958 11.5208Z" fill="black"/>
</svg>
