<svg width="18" height="18" viewBox="0 0 18 18" fill="none" xmlns="http://www.w3.org/2000/svg">
<path d="M7.39996 8.04984C7.44163 7.77484 7.53329 7.53317 7.64996 7.33317C7.89996 6.8665 8.32496 6.62484 8.89996 6.6165C9.27496 6.6165 9.61663 6.78317 9.85829 7.02484C10.0916 7.28317 10.25 7.6415 10.25 7.99984H11.75C11.7333 7.60817 11.6583 7.24984 11.5 6.9165C11.375 6.59984 11.1833 6.3165 10.9333 6.08317C9.72496 4.9665 7.48329 5.12484 6.45829 6.3915C5.38329 7.78317 5.35829 10.2165 6.44996 11.6082C7.45829 12.8498 9.66663 13.0248 10.8666 11.9165C11.125 11.7082 11.3333 11.4498 11.5 11.1498C11.6333 10.8498 11.725 10.5332 11.7333 10.1915H10.25C10.25 10.3665 10.1916 10.5248 10.1166 10.6665C10.0416 10.8248 9.94163 10.9498 9.83329 11.0582C9.55829 11.2748 9.23329 11.3915 8.88329 11.3915C8.58329 11.3832 8.33329 11.3248 8.14163 11.1998C7.92559 11.0784 7.7535 10.8917 7.64996 10.6665C7.23329 9.9165 7.29996 8.87484 7.39996 8.04984ZM8.99996 0.666504C4.41663 0.666504 0.666626 4.4165 0.666626 8.99984C1.10829 20.0582 16.9166 20.0498 17.3333 8.99984C17.3333 4.4165 13.5833 0.666504 8.99996 0.666504ZM8.99996 15.6665C5.32496 15.6665 2.33329 12.6748 2.33329 8.99984C2.69996 0.158171 15.3 0.158171 15.6666 8.99984C15.6666 12.6748 12.675 15.6665 8.99996 15.6665Z" fill="#B9B8B8"/>
</svg>
